<svg width="1200" height="560" viewBox="0 0 1200 560" fill="none" xmlns="http://www.w3.org/2000/svg" role="img" aria-labelledby="title desc">
  <title id="title">sylearn profile hero</title>
  <desc id="desc">Live GitHub profile hero card for sylearn with featured repositories and current GitHub metrics.</desc>
  <defs>
    <linearGradient id="hero-bg" x1="66" y1="34" x2="1127" y2="529" gradientUnits="userSpaceOnUse">
      <stop stop-color="#07111D"/>
      <stop offset="0.52" stop-color="#091725"/>
      <stop offset="1" stop-color="#050B12"/>
    </linearGradient>
    <radialGradient id="hero-glow-a" cx="0" cy="0" r="1" gradientUnits="userSpaceOnUse" gradientTransform="translate(988 128) rotate(136.81) scale(296 238)">
      <stop stop-color="#54D0FF" stop-opacity="0.95"/>
      <stop offset="0.52" stop-color="#235DFF" stop-opacity="0.38"/>
      <stop offset="1" stop-color="#235DFF" stop-opacity="0"/>
    </radialGradient>
    <radialGradient id="hero-glow-b" cx="0" cy="0" r="1" gradientUnits="userSpaceOnUse" gradientTransform="translate(786 472) rotate(20.42) scale(326 226)">
      <stop stop-color="#54D0FF" stop-opacity="0.28"/>
      <stop offset="1" stop-color="#54D0FF" stop-opacity="0"/>
    </radialGradient>
    <filter id="hero-blur" x="-20%" y="-20%" width="140%" height="140%">
      <feGaussianBlur stdDeviation="32"/>
    </filter>
    <style>
      .sans {
        font-family: -apple-system, BlinkMacSystemFont, "SF Pro Display", "Segoe UI", sans-serif;
      }
      .mono {
        font-family: ui-monospace, "SF Mono", SFMono-Regular, Menlo, Monaco, Consolas, monospace;
      }
    </style>
  </defs>

  <rect x="0.5" y="0.5" width="1199" height="559" rx="32" fill="url(#hero-bg)" stroke="#1A3147"/>
  <g filter="url(#hero-blur)">
    <ellipse cx="984" cy="132" rx="228" ry="164" fill="url(#hero-glow-a)"/>
    <ellipse cx="812" cy="468" rx="236" ry="128" fill="url(#hero-glow-b)"/>
  </g>
  <g opacity="0.7">
    <line x1="0" y1="0" x2="0" y2="560" stroke="#9CCBFF" stroke-opacity="0.06"/>
<line x1="120" y1="0" x2="120" y2="560" stroke="#9CCBFF" stroke-opacity="0.06"/>
<line x1="240" y1="0" x2="240" y2="560" stroke="#9CCBFF" stroke-opacity="0.06"/>
<line x1="360" y1="0" x2="360" y2="560" stroke="#9CCBFF" stroke-opacity="0.06"/>
<line x1="480" y1="0" x2="480" y2="560" stroke="#9CCBFF" stroke-opacity="0.06"/>
<line x1="600" y1="0" x2="600" y2="560" stroke="#9CCBFF" stroke-opacity="0.06"/>
<line x1="720" y1="0" x2="720" y2="560" stroke="#9CCBFF" stroke-opacity="0.06"/>
<line x1="840" y1="0" x2="840" y2="560" stroke="#9CCBFF" stroke-opacity="0.06"/>
<line x1="960" y1="0" x2="960" y2="560" stroke="#9CCBFF" stroke-opacity="0.06"/>
<line x1="1080" y1="0" x2="1080" y2="560" stroke="#9CCBFF" stroke-opacity="0.06"/>
<line x1="1200" y1="0" x2="1200" y2="560" stroke="#9CCBFF" stroke-opacity="0.06"/>
<line x1="0" y1="0" x2="1200" y2="0" stroke="#9CCBFF" stroke-opacity="0.06"/>
<line x1="0" y1="80" x2="1200" y2="80" stroke="#9CCBFF" stroke-opacity="0.06"/>
<line x1="0" y1="160" x2="1200" y2="160" stroke="#9CCBFF" stroke-opacity="0.06"/>
<line x1="0" y1="240" x2="1200" y2="240" stroke="#9CCBFF" stroke-opacity="0.06"/>
<line x1="0" y1="320" x2="1200" y2="320" stroke="#9CCBFF" stroke-opacity="0.06"/>
<line x1="0" y1="400" x2="1200" y2="400" stroke="#9CCBFF" stroke-opacity="0.06"/>
<line x1="0" y1="480" x2="1200" y2="480" stroke="#9CCBFF" stroke-opacity="0.06"/>
<line x1="0" y1="560" x2="1200" y2="560" stroke="#9CCBFF" stroke-opacity="0.06"/>
  </g>

  <rect x="722" y="60" width="424" height="438" rx="28" fill="#0B1624" fill-opacity="0.58" stroke="#36506E" stroke-opacity="0.55"/>
  <text x="76" y="92" class="mono" font-size="12" fill="#7DD3FC" letter-spacing="2.4">PROFILE // LIVE SURFACE</text>
  <text x="76" y="162" class="sans" font-size="90" font-weight="760" fill="#F6FAFF" letter-spacing="-3.4">sylearn</text>
  <text x="76" y="206" class="sans" font-size="28" font-weight="600" fill="#DDEBFF" letter-spacing="-0.6">Software should disappear into the work.</text>
  <text x="76" y="250" class="sans" font-size="20" font-weight="500" fill="#8FA6C4">
    <tspan x="76" dy="0">Building AI products, research systems, and developer tooling</tspan>
    <tspan x="76" dy="30">across Python, Swift, shell, and computational materials science.</tspan>
  </text>
  <text x="76" y="332" class="mono" font-size="12" fill="#6D86A2" letter-spacing="1.6">NANJING UNIVERSITY  ·  AI × COMPUTATIONAL MATERIALS SCIENCE</text>
  <text x="76" y="356" class="mono" font-size="12" fill="#6D86A2" letter-spacing="1.6">LIVE LINK  ·  SUCLOUD.VIP  ·  GITHUB.COM/SYLEARN</text>


            <g transform="translate(72 404)">
              <rect width="132" height="86" rx="22" fill="#0F1C2E" fill-opacity="0.76" stroke="#36506E" stroke-opacity="0.48"/>
              <rect x="18" y="17" width="32" height="2.5" rx="1.25" fill="#7DD3FC"/>
              <text x="18" y="56" class="sans" font-size="30" font-weight="700" fill="#F3F8FF">39</text>
              <text x="18" y="73" class="mono" font-size="10.5" fill="#7F96B1" letter-spacing="1.1">FOLLOWERS</text>
            </g>

            <g transform="translate(222 404)">
              <rect width="132" height="86" rx="22" fill="#0F1C2E" fill-opacity="0.76" stroke="#36506E" stroke-opacity="0.48"/>
              <rect x="18" y="17" width="32" height="2.5" rx="1.25" fill="#7DD3FC"/>
              <text x="18" y="56" class="sans" font-size="30" font-weight="700" fill="#F3F8FF">487</text>
              <text x="18" y="73" class="mono" font-size="10.5" fill="#7F96B1" letter-spacing="1.1">REPO STARS</text>
            </g>

            <g transform="translate(372 404)">
              <rect width="132" height="86" rx="22" fill="#0F1C2E" fill-opacity="0.76" stroke="#36506E" stroke-opacity="0.48"/>
              <rect x="18" y="17" width="32" height="2.5" rx="1.25" fill="#7DD3FC"/>
              <text x="18" y="56" class="sans" font-size="30" font-weight="700" fill="#F3F8FF">59</text>
              <text x="18" y="73" class="mono" font-size="10.5" fill="#7F96B1" letter-spacing="1.1">PUBLIC REPOS</text>
            </g>

            <g transform="translate(522 404)">
              <rect width="132" height="86" rx="22" fill="#0F1C2E" fill-opacity="0.76" stroke="#36506E" stroke-opacity="0.48"/>
              <rect x="18" y="17" width="32" height="2.5" rx="1.25" fill="#7DD3FC"/>
              <text x="18" y="56" class="sans" font-size="30" font-weight="700" fill="#F3F8FF">4</text>
              <text x="18" y="73" class="mono" font-size="10.5" fill="#7F96B1" letter-spacing="1.1">ACTIVE / 90D</text>
            </g>


  <text x="758" y="98" class="mono" font-size="12" fill="#7DD3FC" letter-spacing="2.2">FEATURED REPOSITORIES</text>
  <text x="758" y="124" class="sans" font-size="18" font-weight="600" fill="#DDEBFF">A tighter surface for the projects carrying the strongest signal.</text>

            <g transform="translate(758 166)">
              <rect width="366" height="60" rx="18" fill="#0F1C2E" fill-opacity="0.78" stroke="#36506E" stroke-opacity="0.55"/>
              <text x="20" y="24" class="mono" font-size="10.5" fill="#7DD3FC" letter-spacing="1.8">AI DASHBOARD</text>
              <text x="20" y="43" class="sans" font-size="22" font-weight="700" fill="#F3F8FF">AIUsage</text>
              <circle cx="218" cy="38" r="4.5" fill="#F6A04D"/>
              <text x="230" y="42" class="mono" font-size="11" fill="#93A9C2">Swift</text>
              <text x="304" y="42" class="mono" font-size="11" fill="#93A9C2">109★</text>
              <text x="20" y="58" class="mono" font-size="10.5" fill="#6F88A4">1h ago</text>
            </g>

            <g transform="translate(758 244)">
              <rect width="366" height="60" rx="18" fill="#0F1C2E" fill-opacity="0.78" stroke="#36506E" stroke-opacity="0.55"/>
              <text x="20" y="24" class="mono" font-size="10.5" fill="#7DD3FC" letter-spacing="1.8">AUTOMATION LIBRARY</text>
              <text x="20" y="43" class="sans" font-size="22" font-weight="700" fill="#F3F8FF">AICode</text>
              <circle cx="218" cy="38" r="4.5" fill="#7EE787"/>
              <text x="230" y="42" class="mono" font-size="11" fill="#93A9C2">Python</text>
              <text x="304" y="42" class="mono" font-size="11" fill="#93A9C2">254★</text>
              <text x="20" y="58" class="mono" font-size="10.5" fill="#6F88A4">7mo ago</text>
            </g>

            <g transform="translate(758 322)">
              <rect width="366" height="60" rx="18" fill="#0F1C2E" fill-opacity="0.78" stroke="#36506E" stroke-opacity="0.55"/>
              <text x="20" y="24" class="mono" font-size="10.5" fill="#7DD3FC" letter-spacing="1.8">WORKFLOW ENGINE</text>
              <text x="20" y="43" class="sans" font-size="22" font-weight="700" fill="#F3F8FF">Code-Composer</text>
              <circle cx="218" cy="38" r="4.5" fill="#7EE787"/>
              <text x="230" y="42" class="mono" font-size="11" fill="#93A9C2">Python</text>
              <text x="304" y="42" class="mono" font-size="11" fill="#93A9C2">31★</text>
              <text x="20" y="58" class="mono" font-size="10.5" fill="#6F88A4">1y ago</text>
            </g>

            <g transform="translate(758 400)">
              <rect width="366" height="60" rx="18" fill="#0F1C2E" fill-opacity="0.78" stroke="#36506E" stroke-opacity="0.55"/>
              <text x="20" y="24" class="mono" font-size="10.5" fill="#7DD3FC" letter-spacing="1.8">RESEARCH COPILOT</text>
              <text x="20" y="43" class="sans" font-size="22" font-weight="700" fill="#F3F8FF">paper_copilot</text>
              <circle cx="218" cy="38" r="4.5" fill="#7EE787"/>
              <text x="230" y="42" class="mono" font-size="11" fill="#93A9C2">Python</text>
              <text x="304" y="42" class="mono" font-size="11" fill="#93A9C2">25★</text>
              <text x="20" y="58" class="mono" font-size="10.5" fill="#6F88A4">1y ago</text>
            </g>


  <rect x="758" y="484" width="172" height="28" rx="14" fill="#102238" fill-opacity="0.9" stroke="#35506E" stroke-opacity="0.5"/>
  <text x="772" y="502" class="mono" font-size="11" fill="#9BC9FF">UPDATED 2026.04.18 22:14 UTC+8</text>
</svg>
